<svg width="36" height="36" viewBox="0 0 36 36" fill="none" xmlns="http://www.w3.org/2000/svg">
<path fill-rule="evenodd" clip-rule="evenodd" d="M30.8496 6.84994C30.9611 6.73837 31.0497 6.60592 31.11 6.46014C31.1704 6.31437 31.2015 6.15813 31.2015 6.00034C31.2015 5.84256 31.1704 5.68632 31.11 5.54054C31.0497 5.39477 30.9611 5.26231 30.8496 5.15074C30.738 5.03917 30.6056 4.95067 30.4598 4.89029C30.314 4.82991 30.1578 4.79883 30 4.79883C29.8422 4.79883 29.686 4.82991 29.5402 4.89029C29.3944 4.95067 29.2619 5.03917 29.1504 5.15074L18 16.3035L6.84958 5.15074C6.73801 5.03917 6.60555 4.95067 6.45978 4.89029C6.314 4.82991 6.15776 4.79883 5.99998 4.79883C5.84219 4.79883 5.68595 4.82991 5.54018 4.89029C5.3944 4.95067 5.26195 5.03917 5.15038 5.15074C5.03881 5.26231 4.9503 5.39477 4.88992 5.54054C4.82954 5.68632 4.79846 5.84256 4.79846 6.00034C4.79846 6.15813 4.82954 6.31437 4.88992 6.46014C4.9503 6.60592 5.03881 6.73837 5.15038 6.84994L16.3032 18.0003L5.15038 29.1507C4.92505 29.3761 4.79846 29.6817 4.79846 30.0003C4.79846 30.319 4.92505 30.6246 5.15038 30.8499C5.37571 31.0753 5.68132 31.2019 5.99998 31.2019C6.31864 31.2019 6.62425 31.0753 6.84958 30.8499L18 19.6971L29.1504 30.8499C29.3757 31.0753 29.6813 31.2019 30 31.2019C30.3186 31.2019 30.6243 31.0753 30.8496 30.8499C31.0749 30.6246 31.2015 30.319 31.2015 30.0003C31.2015 29.6817 31.0749 29.3761 30.8496 29.1507L19.6968 18.0003L30.8496 6.84994Z" fill="white" fill-opacity="0.5"/>
</svg>
