<svg width="702" height="122" viewBox="0 0 702 122" fill="none" xmlns="http://www.w3.org/2000/svg">
<path d="M98.5943 27.7515C95.3525 28.3158 93.993 31.0968 93.24 33.8979C92.3407 37.3238 91.9224 40.3668 95.2061 42.7851C90.542 38.9159 93.2818 29.7264 98.5943 27.7515ZM95.2061 42.7649C96.1293 43.5483 97.2712 44.0529 98.4897 44.2159C97.2953 43.9781 96.1724 43.482 95.2061 42.7649ZM84.5184 24.0234C84.8949 23.8218 85.1877 23.6808 85.5641 23.5195C85.0903 23.656 84.6495 23.8821 84.2674 24.1846L84.5184 24.0234ZM76.1523 31.0968C73.2869 36.3162 73.4333 43.9136 78.4739 47.9239C73.6843 41.8782 74.8555 33.5755 79.687 28.0336C78.2549 28.7369 77.0423 29.794 76.1732 31.0968H76.1523ZM83.87 24.5473L84.2674 24.1846C82.6334 25.2825 81.1321 26.5533 79.7915 27.9732C81.4281 27.1712 82.8356 25.9949 83.8909 24.5473H83.87ZM81.7785 16.1237C82.3432 16.2446 82.9288 16.4058 83.4517 16.567C82.7406 15.8819 82.887 15.6602 82.0085 15.1161C81.353 14.761 80.6489 14.4965 79.917 14.3301C79.1091 14.0977 78.2713 13.9755 77.4281 13.9674C74.7387 14.0584 72.1298 14.8754 69.8986 16.3252C64.9037 18.9814 60.7811 22.9328 57.9979 27.7314C55.5299 32.0238 53.6475 38.009 54.9861 42.906C55.7436 45.5044 57.3395 47.8032 59.5429 49.4698C61.7463 51.1363 64.4429 52.0841 67.2424 52.176C64.9972 52.0037 62.8414 51.2522 61.0014 50.0006C59.1614 48.7489 57.7049 47.0432 56.7848 45.0623C55.1687 40.4482 55.3923 35.4197 57.4123 30.9557C61.2607 21.464 70.7562 13.9674 81.7785 16.1237ZM145.361 71.5423C147.642 72.5884 150.024 73.4185 152.472 74.021C153.748 74.4039 156.655 76.2579 157.512 74.021C155.298 73.3339 153.033 72.8085 150.736 72.4492C148.607 71.6179 146.608 70.5056 144.796 69.1442C140.613 66.605 135.991 63.8442 134.338 59.0681C135.844 64.489 140.529 68.6807 145.361 71.4819V71.5423ZM133.774 61.97C132.379 60.5956 130.905 59.2971 129.361 58.0806C131.703 59.9145 132.498 63.159 133.209 65.8191C133.533 67.3634 133.763 68.9244 133.899 70.4944C134.087 72.0058 134.631 73.4165 134.945 74.9077C135.318 72.6968 135.43 70.4524 135.28 68.2172C135.133 65.7586 135.51 63.8845 133.774 61.9095V61.97ZM139.588 54.7757C139.588 54.3525 138.312 53.0627 138.04 52.6395C137.187 51.2652 136.526 49.788 136.074 48.2463C137.146 52.7128 139.933 56.6225 143.876 59.189C145.356 60.3556 147.132 61.1209 149.021 61.4057C150.1 61.7025 151.197 61.938 152.305 62.1111C153.301 62.0819 154.291 61.9399 155.254 61.6879C154.731 60.7609 153.162 61.6879 152.137 61.6879C150.223 61.4297 148.348 60.9492 146.553 60.2571C143.792 58.9916 141.4 57.0877 139.588 54.7152V54.7757ZM140.216 39.7219C139.965 40.6489 139.525 41.576 139.295 42.3619C139.712 41.5002 140.021 40.5937 140.216 39.6615V39.7219ZM139.191 36.0945C137.915 35.7721 136.514 36.4774 135.238 36.4774C137.685 36.4774 140.864 36.4774 140.216 39.7219C140.519 39.0888 140.583 38.3731 140.396 37.6993C140.209 37.0256 139.782 36.4363 139.191 36.0341V36.0945ZM130.72 38.1098C126.893 40.0041 124.257 45.2638 123.023 49.0726C122.54 50.2547 122.373 51.535 122.537 52.7957C122.702 54.0564 123.192 55.257 123.964 56.2871C124.271 56.6235 124.651 56.89 125.078 57.0676C125.504 57.2452 125.966 57.3293 126.43 57.3139C126.895 57.2984 127.349 57.1839 127.762 56.9784C128.175 56.773 128.535 56.4818 128.817 56.1259C128.281 56.3567 127.697 56.4638 127.111 56.4386C126.525 56.4133 125.953 56.2564 125.441 55.9804C124.929 55.7043 124.491 55.3168 124.162 54.8487C123.833 54.3806 123.622 53.845 123.546 53.2844C123.685 50.8824 124.303 48.5287 125.366 46.352C126.089 44.162 127.326 42.1616 128.979 40.5053C130.633 38.849 132.66 37.5812 134.903 36.7999C133.417 36.8279 131.969 37.2535 130.72 38.0292V38.1098ZM145.298 102.778C145.156 102.695 144.994 102.65 144.827 102.65C144.661 102.65 144.498 102.695 144.357 102.778C144.664 102.869 144.991 102.869 145.298 102.778ZM144.482 100.239L145.946 100.118C145.715 100.014 145.461 99.9656 145.207 99.9762C144.952 99.9867 144.703 100.056 144.482 100.179V100.239ZM155.379 104.048L155.923 104.552C155.81 104.327 155.617 104.148 155.379 104.048ZM167.405 110.194C163.555 109.762 159.767 108.917 156.111 107.675C153.384 106.982 150.757 105.967 148.289 104.652C148.289 104.652 146.406 103.846 146.427 103.846C145.465 103.403 144.503 103.02 143.562 102.516C141.931 101.69 140.027 101.408 138.48 100.501C136.493 99.5942 134.297 98.8284 132.205 98.0627C130.971 97.5992 129.758 97.1357 128.566 96.5714C127.685 96.0378 126.753 95.5857 125.784 95.2212C126.14 97.7402 126.976 100.622 125.366 102.939C124.169 104.401 122.566 105.505 120.744 106.124C118.458 107.371 116.01 108.319 113.465 108.945C110.89 109.272 108.274 109.1 105.768 108.441C100.268 107.151 94.8505 105.64 89.4544 104.008C86.7981 103.201 84.121 102.395 81.402 101.751C80.2957 101.396 79.1525 101.16 77.9928 101.045C77.0412 101.19 76.0985 101.385 75.1693 101.63C76.6333 104.834 74.2908 108.098 72.4921 110.618C71.638 111.797 70.5315 112.787 69.2472 113.521C67.9629 114.254 66.5305 114.714 65.0463 114.87C62.0393 114.968 59.0548 114.338 56.3665 113.036C53.3547 111.968 50.0919 111.021 47.1011 110.275C40.8265 108.562 34.2173 107.413 27.9009 109.328C24.0232 110.507 20.4312 112.426 17.3387 114.97C15.5008 117.012 14.0814 119.371 13.1557 121.923C13.4903 119.908 13.4485 117.086 14.7243 115.353C15.6743 114.357 16.7098 113.441 17.8198 112.613C19.4909 111.092 21.3202 109.741 23.2786 108.582C31.6447 102.536 42.1023 105.136 51.1168 108.723C55.4671 110.456 60.5914 113.64 65.4646 112.754C66.5733 112.599 67.6352 112.219 68.58 111.638C69.5247 111.058 70.3306 110.291 70.9444 109.388C72.2202 107.373 71.53 105.116 71.1326 102.919C70.5261 103.544 69.9405 104.209 69.3549 104.935C69.0384 103.729 68.9815 102.474 69.1875 101.247C69.3235 100.669 69.6128 100.135 70.027 99.6968C70.4413 99.2588 70.9663 98.9319 71.5509 98.7478C72.0529 98.6471 72.5758 98.9695 73.0568 98.7478C73.768 99.433 75.6503 99.171 76.6543 98.909C77.5418 98.6492 78.4804 98.594 79.3941 98.7478C83.2417 99.2484 87.0353 100.078 90.7302 101.227C94.5368 102.355 98.2806 103.645 102.108 104.713C105.537 105.984 109.214 106.513 112.879 106.265C114.385 106.08 115.821 105.547 117.067 104.712C118.312 103.877 119.33 102.764 120.032 101.468C120.773 99.9745 121.179 98.3473 121.225 96.6923C121.123 95.813 121.201 94.9229 121.455 94.0725C122.668 91.4729 125.638 92.0573 127.729 92.4603C128.97 92.6176 130.178 92.9645 131.306 93.4881L131.034 93.3672C133.125 94.1531 135.217 94.9995 137.183 95.9668C140.237 97.4782 143.604 98.7075 146.574 100.279C150.626 102.251 154.863 103.85 159.228 105.055H158.914C160.19 105.197 161.445 105.741 162.72 105.982C164.382 106.382 166.075 106.651 167.782 106.789C169.951 106.859 172.122 106.819 174.286 106.668C175.29 106.668 176.106 106.305 177.11 106.224H176.838C179.014 105.825 181.124 105.147 183.113 104.209C185.837 102.722 187.916 100.34 188.969 97.4984C188.958 97.452 188.958 97.4038 188.969 97.3573C189.356 96.4169 189.409 95.3794 189.119 94.4071C188.829 93.4348 188.212 92.5825 187.366 91.9836C186.52 91.3847 185.492 91.0731 184.442 91.0973C183.392 91.1216 182.38 91.4805 181.565 92.1177C180.164 93.1657 178.741 94.133 177.382 95.201C172.3 98.9292 166.025 98.768 159.98 97.6596C152.261 95.9959 144.887 93.0938 138.166 89.0748C134.61 87.0595 131.138 85.0443 127.583 83.0291C126.355 82.3168 125.076 81.6905 123.755 81.1549C123.155 80.9353 122.511 80.8518 121.871 80.9108C121.232 80.9698 120.616 81.1697 120.07 81.4951C119.524 81.8205 119.063 82.2626 118.723 82.7872C118.383 83.3118 118.172 83.9049 118.108 84.5204C117.355 88.8934 112.691 92.4402 108.362 93.5889C102.631 95.1204 95.6243 94.0121 90.0609 92.2387H90.4583C88.9694 91.9328 87.5515 91.3658 86.2752 90.566C83.6605 89.1619 80.9572 87.9168 78.1811 86.8379C72.5916 84.5727 66.4684 83.8135 60.4659 84.6413C60.9403 86.1097 61.0982 87.656 60.9299 89.1854C60.7616 90.7147 60.2706 92.1948 59.4871 93.5347C58.7037 94.8746 57.6443 96.0461 56.3739 96.9772C55.1036 97.9083 53.6491 98.5794 52.0998 98.9494C46.3272 100.179 40.5128 96.6722 35.3676 94.7174C31.6127 93.3507 27.627 92.6674 23.6133 92.7022C17.7148 92.4531 11.8596 93.7781 6.69287 96.5311C4.60135 97.841 2.1961 98.9292 0 100.259C0.305747 98.741 0.746597 97.251 1.31766 95.8056C1.86146 94.7577 2.90721 94.4353 3.95297 93.8911C4.88637 93.2907 5.86516 92.7586 6.88111 92.2991C6.74808 92.3248 6.6207 92.3725 6.50463 92.4402C8.55023 90.7058 10.9622 89.4201 13.574 88.6717C15.1897 88.1989 16.8396 87.8419 18.51 87.6037C19.3466 87.4626 20.6015 87.6036 21.1453 87.4827C21.8407 87.4154 22.5414 87.4154 23.2368 87.4827C28.3401 87.2812 33.1924 89.0949 37.8774 90.7675C39.3206 91.2915 40.8265 91.6945 42.2069 92.3394C43.2527 92.8029 44.0893 93.5486 45.0932 94.0725C47.9795 95.5839 54.3168 96.5714 54.7979 92.0573C55.0279 90.0421 54.1077 88.1881 54.2331 86.193C54.248 85.6358 54.3251 85.0818 54.4632 84.5405C54.5887 84.1375 55.2371 83.3918 55.2371 83.0694C55.2371 82.747 54.8397 82.3641 54.7142 82.1424C59.5039 80.5611 64.5795 79.9438 69.6267 80.3287C76.0232 81.5116 82.2177 83.5464 88.0321 86.3744C91.8073 88.0953 95.8018 89.3285 99.912 90.0421C102.705 90.6519 105.626 90.4198 108.278 89.377C109.468 88.7633 110.502 87.9026 111.305 86.8571C112.108 85.8116 112.66 84.6074 112.921 83.3314L109.031 83.7344C111.729 80.3892 114.113 76.9834 118.903 76.4595C125.429 75.7944 131.138 80.2884 136.388 83.3112C139.525 85.1048 142.663 86.8782 145.925 88.5105C148.891 90.1819 152.068 91.4757 155.379 92.3596C161.838 93.519 168.514 92.273 174.056 88.8732C178.631 85.8652 181.881 81.3256 183.175 76.137C183.761 73.8195 183.489 70.2123 180.352 69.7488C178.26 69.4062 175.437 71.764 173.429 70.4944C172.488 69.9704 171.923 69.1644 170.856 68.7815C169.826 68.5045 168.767 68.3356 167.698 68.2777C165.607 67.9552 163.306 67.3305 161.11 66.9073C158.914 66.4841 156.571 66.0609 154.312 65.5571C152.15 65.2116 150.012 64.7337 147.912 64.1263C145.821 63.3404 143.541 62.9978 141.533 62.1111C140.571 61.6677 139.693 61.1035 138.752 60.64C137.573 60.2353 136.444 59.7082 135.384 59.0681C134.484 58.1838 133.823 57.1006 133.459 55.9131C133.094 54.7257 133.037 53.4702 133.293 52.2566C135.907 54.7958 138.27 57.8791 141.659 59.4913C144.053 60.6782 146.543 61.6757 149.105 62.4738C153.584 63.9258 158.19 64.9847 162.867 65.6377C165.848 65.7067 168.823 65.9422 171.777 66.343C174.14 66.5647 176.483 66.8267 178.825 67.1693C176.818 66.2846 174.985 65.0709 173.408 63.5822C172.237 62.8164 170.856 62.4537 169.664 61.6677C168.449 60.8762 167.169 60.182 165.837 59.592C163.452 58.524 160.984 57.5768 158.516 56.7304C155.425 55.7332 152.284 54.8858 149.105 54.1912C147.943 54.2692 146.79 53.9557 145.842 53.3046C145.57 53.103 143.144 51.1886 143.353 50.7855C143.562 50.3825 145.047 51.914 145.444 52.1559C146.079 52.6733 146.782 53.107 147.536 53.4456C148.667 53.7662 149.82 54.0086 150.987 54.1711C153.371 54.695 155.818 55.1384 158.161 55.7027C163.221 57.0908 168.037 59.2035 172.446 61.97C174.537 63.2195 176.252 65.1541 178.449 66.2423C179.925 66.939 181.263 67.8803 182.402 69.0233C183.845 70.172 185.267 71.3609 186.585 72.5499C186.585 72.429 186.585 72.2879 186.585 72.1469C187.35 73.3141 188.336 74.3326 189.492 75.1496C191.544 76.664 193.175 78.644 194.24 80.9131C193.926 80.3085 193.612 79.7443 193.236 79.1599C196.036 83.4826 197.044 88.6629 196.059 93.6695C193.549 106.809 179.934 111.565 167.552 110.154L167.405 110.194ZM94.0139 50.1608C94.6962 49.8978 95.3947 49.6757 96.1054 49.4958C95.3564 49.6616 94.6221 49.8839 93.9093 50.1608H94.0139ZM33.1715 11.8716C37.0575 6.59354 42.6934 2.74828 49.1507 0.969198C55.6345 -0.703438 61.9718 0.0824996 68.4555 1.13042C74.5 2.01711 81.5275 4.03234 86.3589 7.65974C87.823 8.76811 89.4544 9.67496 90.8975 10.8438C92.3407 12.0126 95.0806 14.048 95.3734 15.7408H95.0387C97.0689 17.6597 99.3632 19.3007 101.857 20.6176C105.189 22.5439 108.688 24.189 112.315 25.5348C117.648 27.55 125.115 29.5652 129.779 25.3131C131.839 23.4722 133.064 20.9239 133.188 18.2195C133.154 16.9172 133.035 15.6182 132.833 14.3301C132.906 13.4598 132.748 12.5857 132.372 11.7909C131.718 11.2101 131.019 10.6779 130.281 10.1989C129.8 9.75557 129.34 9.25177 128.88 8.82857C127.973 7.92718 126.864 7.23783 125.638 6.81335C124.375 6.39022 123.031 6.24481 121.703 6.38778C120.374 6.53076 119.096 6.95849 117.962 7.63959C115.536 9.1107 113.381 12.1134 114.532 14.9347C114.808 15.5511 115.217 16.1047 115.729 16.5595C116.242 17.0143 116.849 17.3603 117.509 17.5749C118.17 17.7896 118.87 17.8682 119.564 17.8057C120.258 17.7432 120.931 17.5409 121.538 17.2119C119.698 19.5697 117.042 19.2271 115.034 17.2119C114.233 16.3442 113.709 15.2728 113.523 14.1257C113.338 12.9785 113.499 11.8042 113.988 10.743C115.619 6.55137 121.622 5.40269 125.7 5.9871C130.212 6.77983 134.259 9.15651 137.057 12.6575C138.701 14.3047 139.731 16.4311 139.986 18.7032C139.914 21.1746 138.901 23.5343 137.141 25.3332C136.075 27.0758 134.49 28.469 132.591 29.3316C130.693 30.1942 128.569 30.4862 126.495 30.1698C121.27 29.5946 116.145 28.3685 111.248 26.5222C106.425 24.8001 101.805 22.5912 97.4649 19.9325C96.2727 19.2473 95.227 18.3606 94.0348 17.6754C93.6349 17.4386 93.1966 17.2682 92.7381 17.1716C92.6126 17.1716 92.4661 17.6351 92.3197 17.5948C91.755 17.5948 91.0021 16.5469 90.2282 16.2446C89.4544 15.9423 88.2413 15.6602 87.2374 15.2571C86.2334 14.8541 85.4805 14.3704 84.5184 14.1085C83.6203 13.897 82.7552 13.5717 81.9458 13.1411C81.1929 12.6776 80.6281 12.0126 79.8543 11.5894C77.9173 10.7662 75.8894 10.1577 73.8098 9.77572C71.6055 9.04291 69.3473 8.47032 67.0542 8.06278C62.7981 7.39873 58.4392 7.7194 54.3371 8.99834C50.235 10.2773 46.5073 12.4778 43.4618 15.4183C32.7323 26.4013 36.3297 45.6467 50.2593 52.3977C54.4647 54.1369 58.9105 55.2774 63.4568 55.7833C65.8575 56.3111 68.3149 56.5614 70.7771 56.5289C73.2278 56.3208 75.6475 55.8545 77.9928 55.1384C80.0844 54.5741 81.151 53.1232 83.5145 52.962C85.277 52.8422 87.0041 52.4262 88.6178 51.7327C92.8095 50.2956 97.2199 49.5396 101.669 49.4958C99.8074 49.1131 97.8832 49.1131 96.0218 49.4958C98.7187 48.7944 101.566 48.8403 104.238 49.6281C106.909 50.4159 109.295 51.9137 111.123 53.9494C111.979 54.7905 112.648 55.7906 113.09 56.8888C113.533 57.987 113.738 59.1604 113.695 60.3377C113.147 62.7447 111.732 64.8867 109.7 66.3833C108.185 67.7448 106.314 68.6834 104.288 69.0988C102.261 69.5141 100.156 69.3905 98.1969 68.7412C97.0809 68.4097 96.0763 67.7984 95.2862 66.9697C94.496 66.1411 93.9487 65.125 93.7002 64.0255C93.6406 63.5205 93.702 63.009 93.8797 62.5304C94.0573 62.0518 94.3465 61.6188 94.725 61.2647C95.1224 60.8616 95.8963 60.0555 96.2309 60.8415C96.7329 61.97 94.6413 62.9978 95.227 64.348C95.8126 65.6982 99.41 67.5925 101.041 68.056C105.915 69.4263 108.466 65.7183 109.094 61.7282C109.868 56.7909 107.002 54.6346 102.526 52.9015C97.5067 50.8863 92.3616 52.5791 87.4256 54.03C85.1239 54.7108 82.7757 55.236 80.3981 55.6019C78.0137 55.9848 75.6294 56.9319 73.2451 57.5164C67.7373 59.073 61.953 59.5054 56.2619 58.786L57.726 60.0757C51.8906 57.5567 45.7625 55.5616 40.3873 52.176C37.4742 50.5187 34.8663 48.4077 32.6696 45.9288C30.3566 43.0281 28.8001 39.6348 28.131 36.0341C26.6042 27.8523 27.9009 18.6024 33.067 11.7708L33.1715 11.8716Z" fill="#111111"/>
<path d="M207.128 43.7566L213.946 21.2444H217.865L219.342 21.58L220.55 22.2513L221.919 22.6902L229.972 23.6454H269.192L275.849 22.7418L277.272 22.4062L279.795 21.3477H284.225L291.07 43.7824H285.701C285.482 43.7349 285.276 43.6407 285.1 43.5066C284.923 43.3726 284.78 43.2021 284.681 43.0079L284.252 41.7687L281.03 36.0374L277.621 32.1907L276.628 31.3904L274.239 30.1512L271.554 29.2476L268.494 28.7054L257.622 28.5505V96.6032L258.105 99.7012L258.911 102.283L259.608 103.393L260.629 104.193L261.81 104.839L264.655 105.536L268.118 105.768V110.596H229.892V105.742H232.576L235.636 105.097L236.925 104.555L237.945 103.832L238.777 102.851L239.368 101.715L240.093 98.9784L240.495 95.7255V28.6022H230.67L227.207 29.0927L224.523 29.9446L222.08 31.1064L219.235 33.6881L215.503 38.8514L213.302 43.6791L207.128 43.7566Z" fill="#111111"/>
<path d="M344.974 61.2086V51.9404L343.524 53.7734L343.068 54.961L342.799 56.2002V57.6975L343.014 59.1433L343.39 60.3308L344.061 61.2086L344.893 62.0605L344.974 61.2086ZM334.236 26.1754V21.0121H401.615L401.83 21.2702L403.602 42.853L397.884 43.3951V43.1628L396.058 36.6053L393.991 32.7587L392.193 30.874L390.69 29.9188L388.005 28.9378L380.596 27.7244L367.174 27.5953L365.026 27.8277L363.416 28.6796L362.879 29.3767L362.422 31.3129V60.7955L362.986 61.0537L376.408 55.0901L380.408 54.1348L383.791 54.4446L385.67 54.9868L388.354 56.0711L391.039 58.1622L391.629 58.8335L393.025 61.0021L393.991 63.5837V65.8556L393.616 67.9209L392.918 69.4957L391.817 70.9931L389.294 73.2908L387.119 74.53L386.743 73.7297L387.119 72.981L388.515 71.9999L390.421 70.2444L390.77 69.4441L391.2 67.8177L390.636 66.8108L389.857 66.4236L387.898 65.9847H386.717L367.201 73.4973L362.342 74.7882V91.3366L362.879 95.6222L363.899 99.314L364.275 100.166L365.295 101.508L366.744 102.515L368.516 103.238L370.529 103.6H382.368L391.978 102.154L395.602 100.966L397.884 99.5205L400.756 96.4225L403.441 91.9562L405.669 86.9478C405.699 86.8122 405.767 86.6873 405.867 86.587C405.966 86.4867 406.093 86.415 406.232 86.3798L411.601 87.7739L406.393 108.427L406.125 110.518L405.185 110.854H334.263V106.801L334.531 105.846L338.048 105.587L340.061 105.149L341.779 104.4L343.068 103.316L344.088 100.734L344.759 97.8166L345.135 92.2402L344.974 68.6696L343.363 66.6817L342.021 64.4099L341.35 62.6285L340.786 59.4789V57.2586L341.35 54.2123L342.128 52.5858L343.175 51.2434L345.081 49.4878V43.5758L345.242 38.9805L344.974 34.5658L343.739 29.8414L342.799 28.3698L342.128 27.8019L340.437 27.0274L338.45 26.5885L334.236 26.1754Z" fill="#111111"/>
<path d="M495.893 2.81101C505.861 10.0913 515.82 10.0913 525.77 2.81101V9.36844C515.802 16.6487 505.843 16.6487 495.893 9.36844V2.81101ZM561.715 21.5539V26.7172L557.474 27.2594L555.299 27.8532L553.34 28.9116L551.997 30.3315L551.514 31.3384L550.736 34.772V40.0902L551.192 98.3068L551.783 100.501L552.803 102.412L554.145 103.857L555.997 104.838L558.279 105.381L561.849 105.69V110.466L561.634 110.699L558.064 110.466L530.978 110.699V106.826L531.139 105.69L538.226 104.038L538.951 103.393L539.622 102.592L540.401 100.63L541.099 97.0676L542.253 39.2125L477.826 111.009L477.102 111.654H471.357C470.948 111.645 470.552 111.509 470.229 111.267L469.451 35.2109L468.833 31.5966L468.404 30.5897L467.277 28.9116L465.773 27.595L464.834 27.1561L463.626 26.8721L459.116 26.7172V22.7931L459.304 21.5539H489.933V26.7172L485.584 27.1561L483.41 27.8532L481.585 28.9633L480.403 30.5897L479.544 32.5776L478.82 36.0112L478.256 83.204L478.444 84.2109L534.468 22.2509L535.246 21.6055L536.589 21.7862L561.715 21.5539Z" fill="#111111"/>
<path d="M673.012 64.1519V28.3959C672.311 28.2068 671.591 28.0942 670.864 28.0602H668.878C663.864 27.8308 658.907 29.1518 654.731 31.8295C651.151 34.3251 649.362 38.6279 649.362 44.7378C649.362 51.8116 651.617 56.8114 656.127 59.7373C661.156 62.8277 667.047 64.3679 673.012 64.1519ZM648.369 65.4944C643.419 63.6888 639.114 60.5522 635.966 56.4586C632.909 52.2509 631.337 47.2101 631.484 42.0787C631.484 34.3337 634.168 29.1704 639.939 25.9949C645.631 22.9495 652.029 21.3335 658.543 21.2963H659.375C661.227 21.2963 663.106 21.2963 665.039 21.2963C666.972 21.2963 668.851 21.4512 670.676 21.4512L676.314 21.7093C678.22 21.7093 680.099 21.7093 681.978 21.7093C685.092 21.7093 688.286 21.7093 691.481 21.7093C694.675 21.7093 697.95 21.5028 701.198 21.3479V26.1756C696.259 26.1756 693.145 27.2857 692.125 29.506C690.82 32.6444 690.243 36.0188 690.434 39.3937L690.595 45.4607V86.4575L690.434 92.3437C690.275 95.6468 690.804 98.9472 691.991 102.051C693.011 104.323 696.098 105.484 701.198 105.484V110.648H698.702L696.178 110.467L688.635 110.183C686.112 110.183 683.615 110.183 681.146 110.183H676.475C674.918 110.183 673.361 110.183 671.777 110.183L667.106 110.467L662.462 110.725V105.562C667.455 105.562 670.515 104.4 671.482 102.128C672.658 99.0225 673.178 95.7225 673.012 92.4211V70.3221H664.556L646.704 97.9459C645.765 99.34 644.933 100.528 644.208 101.767C643.521 102.8 642.768 103.792 641.953 104.736C640.418 106.721 638.387 108.302 636.047 109.331C633.084 110.331 629.95 110.777 626.813 110.648H613.981V105.484C615.564 105.453 617.123 105.106 618.56 104.466C619.997 103.827 621.28 102.907 622.33 101.767C624.844 99.2866 627.117 96.5905 629.121 93.712C630.141 92.1888 631.134 90.6914 632.074 89.1941C633.014 87.6967 633.846 86.4317 634.624 85.3474L648.369 65.4944Z" fill="#111111"/>
</svg>
